<?xml version="1.0" encoding="UTF-8" standalone="no"?>
<!-- Created with Inkscape (http://www.inkscape.org/) -->

<svg
   width="288mm"
   height="96mm"
   viewBox="0 0 288 96"
   version="1.1"
   id="svg1"
   xml:space="preserve"
   inkscape:version="1.4 (86a8ad7, 2024-10-11)"
   sodipodi:docname="logo_simple.svg"
   xmlns:inkscape="http://www.inkscape.org/namespaces/inkscape"
   xmlns:sodipodi="http://sodipodi.sourceforge.net/DTD/sodipodi-0.dtd"
   xmlns:xlink="http://www.w3.org/1999/xlink"
   xmlns="http://www.w3.org/2000/svg"
   xmlns:svg="http://www.w3.org/2000/svg"><sodipodi:namedview
     id="namedview1"
     pagecolor="#ffffff"
     bordercolor="#000000"
     borderopacity="0.25"
     inkscape:showpageshadow="2"
     inkscape:pageopacity="0.0"
     inkscape:pagecheckerboard="0"
     inkscape:deskcolor="#d1d1d1"
     inkscape:document-units="mm"
     inkscape:zoom="0.70710678"
     inkscape:cx="461.03362"
     inkscape:cy="195.86858"
     inkscape:window-width="1920"
     inkscape:window-height="1001"
     inkscape:window-x="-9"
     inkscape:window-y="-9"
     inkscape:window-maximized="1"
     inkscape:current-layer="layer1"
     showguides="false" /><defs
     id="defs1"><linearGradient
       id="linearGradient5"
       inkscape:collect="always"><stop
         style="stop-color:#e64141;stop-opacity:1;"
         offset="0"
         id="stop5" /><stop
         style="stop-color:#000000;stop-opacity:1;"
         offset="1"
         id="stop6" /></linearGradient><linearGradient
       inkscape:collect="always"
       xlink:href="#linearGradient5"
       id="linearGradient6"
       x1="107.24139"
       y1="25.360498"
       x2="123.44324"
       y2="41.562359"
       gradientUnits="userSpaceOnUse" /></defs><g
     inkscape:groupmode="layer"
     id="layer3"
     inkscape:label="FG" /><g
     inkscape:label="Text"
     inkscape:groupmode="layer"
     id="layer1"><path
       d="m 109.08443,34.012251 4.52232,11.38489 -2.99973,11.447729 6.10464,0.0599 c 2.61236,-10.75111 5.92754,-21.85007 8.84825,-32.801504 l -6.12578,0.16704 -3.10385,10.779653 -4.70141,-10.522053 -6.30183,0.0257"
       style="font-size:29.3738px;fill:url(#linearGradient6);fill-opacity:1;stroke-width:3.55885"
       id="path1" /><path
       id="text1"
       style="font-size:29.3738px;fill:#000000;fill-opacity:1;stroke-width:3.55885"
       inkscape:transform-center-x="3.0047414"
       inkscape:transform-center-y="1.4202535"
       d="m 142.85872,24.359089 c -1.67034,-0.52494 -2.51626,-0.50899 -5.23834,-0.5091 l -6.37545,0.1118 -8.64929,32.892163 6.13761,-0.0689 7.42053,-27.21194 c 3.37573,-0.90451 5.46582,0.995531 5.46582,0.995531 2.0817,2.081699 1.29728,4.31995 1.29728,4.31995 -1.65784,6.187129 -7.18865,5.236789 -7.18865,5.236789 l -1.46172,5.455241 c 2.34321,11.22313 3.56404,14.473549 3.56404,14.473549 0,0 0.57362,2.21752 3.63757,5.28149 0,0 2.73199,2.66803 7.35036,2.668 0,0 -3.81726,-5.36784 -5.04748,-9.95908 0,0 -2.88916,-10.1794 -2.88916,-13.45656 0,0 2.35583,-0.45676 4.64411,-2.745071 1.53364,-1.533649 2.44169,-2.37787 3.3624,-5.813998 0,0 0.77077,-2.537711 0.20539,-4.647682 0,0 -0.60299,-2.721599 -2.33672,-4.455338 -2.02282,-2.022784 -2.51719,-2.132764 -3.8983,-2.566764 z M 100.23,17.232178 c -5.608556,0.35679 -7.375676,4.947869 -7.375676,4.947869 l -10.15035,34.535366 6.1931,0.12169 3.1559,-11.37165 7.78797,-0.074 -3.11433,11.347 6.260956,-9.29e-4 8.642,-32.208805 -6.30157,0.0257 -3.96728,14.985103 -7.650376,0.21666 z m -47.425858,-0.215369 -23.775361,0.28602 -1.605553,5.48981 14.644457,-0.0188 -21.268332,29.143917 -3.782353,5.41601 22.713738,0.0299 1.42025,-5.860701 -13.178314,0.172891 19.472759,-26.593863 z m 25.636262,8.122284 c -0.26894,-0.0683 -0.58872,-0.14291 -0.98116,-0.231014 -1.23432,-0.15875 -1.594248,-0.0878 -2.827178,-0.0878 l -22.954398,0.354344 -6.37531,24.38227 c -0.947999,3.53799 2.056193,6.87208 5.024369,7.595289 3.213987,0.783111 7.531503,0.156661 7.531503,0.156661 l 1.498562,-5.82493 -5.60111,0.134189 c 0,0 -2.987198,0.253889 -2.145507,-2.887361 l 0.963926,-3.12133 7.377137,-0.170059 1.565989,-5.510531 -7.574349,-0.0345 2.69514,-9.071431 10.430078,-0.15476 c -2.34282,8.56486 -4.49436,16.511882 -5.59078,20.6038 -1.1532,4.30383 1.18956,8.71924 1.18956,8.71924 2.589502,5.379722 7.887067,10.255606 15.852355,10.255606 8.302677,0 14.937006,-2.794701 21.364488,-1.072463 2.906211,0.77872 4.923941,1.790498 6.246521,3.113075 4.28898,4.288978 2.38117,6.695803 2.38117,6.695803 0,0 10.7571,-7.17262 14.98516,-13.91202 0,0 -1.4843,-2.35366 -8.38475,-3.266399 0,0 -6.47225,-1.263101 -18.224956,1.886029 -12.76151,3.41944 -17.93446,2.890471 -23.410598,-0.27118 0,0 -2.65575,-1.01384 -4.86496,-4.840319 -1.8215,-3.15499 -1.03859,-7.40159 -1.03859,-7.40159 l 5.57132,-20.801151 1.49005,0.0649 c 1.450028,0.0721 2.756668,0.37901 3.508068,1.68046 0.67463,1.31656 0.81657,2.35649 0.4469,3.87663 -0.50902,2.09295 -1.68997,3.087559 -2.56435,3.96195 -0.947488,0.86024 -2.307098,1.28652 -3.716808,1.51955 l -1.37772,5.14172 c 2.37608,0.25787 3.43766,0.0904 5.768808,-0.77682 1.70034,-0.9817 3.76278,-2.00718 4.74669,-3.33984 1.1163,-1.51197 2.18152,-2.460641 2.92164,-5.22274 0.54037,-2.016691 0.93678,-3.20819 0.27692,-6.14838 -1.12954,-3.14058 -2.46692,-4.2656 -4.52047,-5.36251 -0.52234,-0.27898 -0.87651,-0.42706 -1.68336,-0.63228 z"
       sodipodi:nodetypes="cccccccccccccccsccccccccccccccccccccccccccccccccccsccccccccccscccscccscccccccccccsscccc" /><text
       xml:space="preserve"
       style="font-style:normal;font-variant:normal;font-weight:normal;font-stretch:normal;font-size:34.16px;font-family:Outfit;-inkscape-font-specification:Outfit;text-align:start;writing-mode:lr-tb;direction:ltr;text-anchor:start;fill:#e64141;fill-opacity:1;stroke-width:2.84666"
       x="162.59871"
       y="59.68272"
       id="text2"><tspan
         sodipodi:role="line"
         id="tspan1"
         style="font-style:normal;font-variant:normal;font-weight:normal;font-stretch:normal;font-family:Outfit;-inkscape-font-specification:Outfit;fill:#e64141;fill-opacity:1;stroke-width:2.84666"
         x="162.59871"
         y="59.68272">Motors</tspan></text><circle
       style="fill:#000000;fill-opacity:1;stroke-width:0.449451"
       id="path8-7-5"
       cx="128.51286"
       cy="69.907661"
       r="1.9097455" /><circle
       style="fill:#000000;fill-opacity:1;stroke-width:0.449451"
       id="path8-7-5-6"
       cx="134.06914"
       cy="69.775749"
       r="1.9097455" /><g
       id="g1"
       transform="matrix(0.06614583,0,0,0.06614583,147.30482,13.00219)"><rect
         fill="none"
         height="256"
         width="256"
         id="rect1"
         x="0"
         y="0" /><circle
         cx="128"
         cy="128"
         fill="none"
         r="96"
         stroke="#000000"
         stroke-linecap="round"
         stroke-linejoin="round"
         stroke-width="16"
         id="circle1" /><path
         d="m 104,136 h 32 a 24,24 0 0 0 0,-48 h -32 v 80"
         fill="none"
         stroke="#000000"
         stroke-linecap="round"
         stroke-linejoin="round"
         stroke-width="16"
         id="path1-2" /><line
         fill="none"
         stroke="#000000"
         stroke-linecap="round"
         stroke-linejoin="round"
         stroke-width="16"
         x1="137.60001"
         x2="160"
         y1="135.89999"
         y2="168"
         id="line1" /></g></g></svg>
