<?xml version="1.0" encoding="UTF-8" standalone="no"?>
<!-- Created with Inkscape (http://www.inkscape.org/) -->

<svg
   width="96mm"
   height="96mm"
   viewBox="0 0 96 96"
   version="1.1"
   id="svg1"
   xml:space="preserve"
   sodipodi:docname="logo-text.svg"
   inkscape:version="1.4 (86a8ad7, 2024-10-11)"
   xmlns:inkscape="http://www.inkscape.org/namespaces/inkscape"
   xmlns:sodipodi="http://sodipodi.sourceforge.net/DTD/sodipodi-0.dtd"
   xmlns:xlink="http://www.w3.org/1999/xlink"
   xmlns="http://www.w3.org/2000/svg"
   xmlns:svg="http://www.w3.org/2000/svg"><sodipodi:namedview
     id="namedview1"
     pagecolor="#01172f"
     bordercolor="#000000"
     borderopacity="0.25"
     inkscape:showpageshadow="2"
     inkscape:pageopacity="0.0"
     inkscape:pagecheckerboard="0"
     inkscape:deskcolor="#d1d1d1"
     inkscape:document-units="mm"
     inkscape:zoom="1.2355648"
     inkscape:cx="144.06367"
     inkscape:cy="203.55064"
     inkscape:window-width="1920"
     inkscape:window-height="1001"
     inkscape:window-x="-9"
     inkscape:window-y="-9"
     inkscape:window-maximized="1"
     inkscape:current-layer="layer1"
     showguides="false" /><defs
     id="defs1"><linearGradient
       id="linearGradient15"
       inkscape:collect="always"><stop
         style="stop-color:#e6e6e6;stop-opacity:1;"
         offset="0"
         id="stop8" /><stop
         style="stop-color:#e488a7;stop-opacity:1;"
         offset="0.26062641"
         id="stop14" /><stop
         style="stop-color:#711e23;stop-opacity:1;"
         offset="1"
         id="stop15" /></linearGradient><linearGradient
       id="linearGradient14"
       inkscape:collect="always"><stop
         style="stop-color:#e6e6e6;stop-opacity:1;"
         offset="0"
         id="stop12" /><stop
         style="stop-color:#e48888;stop-opacity:1;"
         offset="0.58501118"
         id="stop13" /></linearGradient><linearGradient
       id="linearGradient9"
       inkscape:collect="always"><stop
         style="stop-color:#e6e6e6;stop-opacity:1;"
         offset="0"
         id="stop9" /><stop
         style="stop-color:#e488a7;stop-opacity:1;"
         offset="0.26062641"
         id="stop11" /><stop
         style="stop-color:#711e1e;stop-opacity:1;"
         offset="1"
         id="stop10" /></linearGradient><linearGradient
       id="linearGradient5"
       inkscape:collect="always"><stop
         style="stop-color:#c04a4a;stop-opacity:1;"
         offset="0"
         id="stop6" /><stop
         style="stop-color:#d04141;stop-opacity:0;"
         offset="1"
         id="stop7" /></linearGradient><linearGradient
       id="linearGradient4"
       inkscape:collect="always"><stop
         style="stop-color:#f3f4ed;stop-opacity:1;"
         offset="0.39597315"
         id="stop4" /><stop
         style="stop-color:#ff4473;stop-opacity:0;"
         offset="1"
         id="stop5" /></linearGradient><linearGradient
       id="linearGradient2"
       inkscape:collect="always"><stop
         style="stop-color:#f2f0e4;stop-opacity:1;"
         offset="0.45413867"
         id="stop2" /><stop
         style="stop-color:#da2754;stop-opacity:1;"
         offset="0.67337811"
         id="stop3" /></linearGradient><linearGradient
       inkscape:collect="always"
       xlink:href="#linearGradient2"
       id="linearGradient3"
       x1="120.61189"
       y1="80.471756"
       x2="120.61189"
       y2="197.69603"
       gradientUnits="userSpaceOnUse"
       gradientTransform="matrix(0.75641343,-0.21154934,0.0959795,1.2951854,0,0)" /><radialGradient
       inkscape:collect="always"
       xlink:href="#linearGradient4"
       id="radialGradient5"
       cx="108.82162"
       cy="107.5313"
       fx="108.82162"
       fy="107.5313"
       r="19.555408"
       gradientTransform="matrix(-3.2657383,0,0,-1.9996231,406.73912,203.93803)"
       gradientUnits="userSpaceOnUse" /><radialGradient
       inkscape:collect="always"
       xlink:href="#linearGradient5"
       id="radialGradient7"
       cx="115.60107"
       cy="158.05884"
       fx="115.60107"
       fy="158.05884"
       r="16.985245"
       gradientTransform="matrix(-1.6169764,0,0,-0.7329287,245.89434,166.05004)"
       gradientUnits="userSpaceOnUse" /><radialGradient
       inkscape:collect="always"
       xlink:href="#linearGradient9"
       id="radialGradient10"
       cx="82.865906"
       cy="39.379124"
       fx="82.865906"
       fy="39.379124"
       r="1.1242329"
       gradientUnits="userSpaceOnUse"
       gradientTransform="matrix(5.8333123,0,0,1.809526,-400.02887,-32.525044)" /><radialGradient
       inkscape:collect="always"
       xlink:href="#linearGradient15"
       id="radialGradient10-2"
       cx="82.865906"
       cy="39.379124"
       fx="82.865906"
       fy="39.379124"
       r="1.1242329"
       gradientUnits="userSpaceOnUse"
       gradientTransform="matrix(5.8333123,0,0,1.809526,-403.21193,-31.517562)" /><radialGradient
       inkscape:collect="always"
       xlink:href="#linearGradient14"
       id="radialGradient10-2-8"
       cx="82.865906"
       cy="39.379124"
       fx="82.865906"
       fy="39.379124"
       r="1.1242329"
       gradientUnits="userSpaceOnUse"
       gradientTransform="matrix(5.1041483,0,0,1.5833353,-395.93688,-59.677394)" /></defs><g
     inkscape:groupmode="layer"
     id="layer3"
     inkscape:label="FG"><path
       id="path17"
       style="fill:url(#radialGradient7);fill-opacity:1;stroke-width:0.264583"
       d="m 55.289415,58.319472 c -3.04166,0.81501 -11.53012,0.97113 -16.133209,-1.08312 -4.603092,-2.05426 -7.820781,-5.64903 -7.820781,-5.64903 0,0 3.959094,2.40732 6.755838,2.76327 1.043895,0 2.288932,0.95345 11.298682,-1.46071 4.53257,-1.2145 9.34788,-3.76234 13.73632,-2.07035 2.02418,0.92773 2.17965,2.40372 2.17965,2.40372 0,0 -2.79995,3.16253 -10.0165,5.09621 z"
       sodipodi:nodetypes="csccssccc" /><path
       id="path16"
       style="fill:url(#radialGradient5);fill-opacity:1;stroke-width:0.264583"
       d="m 41.766487,5.0695321 c 14.087858,-3.77483 22.346198,4.55354 22.346198,4.55354 L 25.001867,20.656112 c 0,0 4.009168,-12.1687699 16.76462,-15.5865799 z"
       sodipodi:nodetypes="cccc" /><circle
       style="fill:url(#radialGradient10);fill-opacity:1;stroke-width:0.264583"
       id="path8"
       cx="82.764954"
       cy="39.722897"
       r="1.1242329" /><circle
       style="fill:url(#radialGradient10-2);fill-opacity:1;stroke-width:0.264583"
       id="path8-7"
       cx="79.581902"
       cy="40.730377"
       r="1.1242329" /><circle
       style="fill:url(#radialGradient10-2-8);fill-opacity:1;stroke-width:0.231511"
       id="path8-7-5"
       cx="26.507727"
       cy="3.539552"
       r="0.98370379" /></g><g
     inkscape:label="Text"
     inkscape:groupmode="layer"
     id="layer1"
     transform="translate(-56.630915,-120.68139)"><path
       id="text1"
       style="font-size:29.3738px;fill:url(#linearGradient3);fill-opacity:1;stroke-width:2.44781"
       inkscape:transform-center-x="-1.0063372"
       inkscape:transform-center-y="-1.5903312"
       d="m 138.30267,129.33577 c -1.20318,-0.0514 -1.76235,0.10978 -3.57084,0.59428 l -4.21577,1.20918 0.10904,23.39237 4.06539,-1.1383 0.0858,-19.39985 c 2.08172,-1.20188 3.80856,-0.31162 3.80856,-0.31162 1.75361,1.01245 1.6309,2.63912 1.6309,2.63912 0,4.40569 -3.84369,4.75889 -3.84369,4.75889 l 1e-5,3.88452 c 3.55468,7.0392 4.9444,8.98136 4.9444,8.98136 0,0 0.77586,1.37116 3.3569,2.86132 0,0 2.29002,1.28623 5.35833,0.46406 0,0 -3.49165,-2.88671 -5.12631,-5.718 0,0 -3.73159,-6.24859 -4.31498,-8.42584 0,0 1.48383,-0.72284 2.59674,-2.65048 0.74589,-1.29193 1.19889,-2.01446 1.19889,-4.46123 0,0 0.0603,-1.8232 -0.69091,-3.12436 0,0 -0.88511,-1.70081 -2.34559,-2.54402 -1.70399,-0.98379 -2.05202,-0.96885 -3.04685,-1.01132 z m -29.99042,1.35961 c -3.66266,1.23546 -4.01939,4.60023 -4.01939,4.60023 l -0.19534,26.24543 4.13619,-1.02165 0.0723,-8.11681 5.16094,-1.43545 -0.0491,8.09305 4.15944,-1.11517 0.006,-16.18299 5.03122,6.75876 0.045,8.13956 4.06642,-1.04698 c -0.17832,-7.60779 0.0484,-15.57179 0.0393,-23.36756 l -4.04006,1.20142 -0.14315,7.71425 -4.9966,-6.15362 -4.18216,1.13897 0.032,10.66189 -5.04413,1.5059 z m -31.146417,9.79372 -15.744777,4.42245 -0.0894,3.93309 9.726019,-2.61951 -8.706445,24.02747 -1.548743,4.27157 15.095719,-4.02352 -0.09974,-4.14652 -8.724536,2.46078 7.967473,-22.01364 z m 18.477941,0.8325 c -0.190854,0.002 -0.416579,0.01 -0.692979,0.0212 -0.84831,0.1143 -1.074808,0.22551 -1.893941,0.44495 l -15.187184,4.32176 0.104904,17.33382 c 0,2.5193 2.589432,4.19958 4.690152,4.15168 2.27469,-0.0519 4.745964,-1.16013 4.745964,-1.16013 l -0.04134,-4.1367 -3.411673,1.00982 c 0,0 -1.939416,0.70045 -1.939417,-1.53634 l 0.08475,-2.24534 4.755172,-1.20251 0.05943,-3.93982 -4.922599,1.1018 0.175699,-6.50658 6.901897,-1.95964 c -0.0318,6.10732 -0.04651,11.77012 -0.04651,14.68386 0,3.06464 2.342491,5.58106 2.342491,5.58106 4.891092,5.68569 12.04784,3.20859 12.04784,3.20859 l 5.32991,-1.52237 c 4.08857,-1.16779 8.93991,-3.65533 12.07575,-1.84485 4.58542,2.64738 4.38526,4.61523 4.38526,4.61523 0,0 5.86985,-6.68024 7.47913,-11.91038 0,0 -2.46328,-1.16083 -6.15208,-0.67748 0,0 -4.52483,0.31301 -11.7724,4.4974 -7.86968,4.54357 -11.4006,5.11301 -15.601631,3.98735 0,0 -1.94489,-0.2008 -4.093812,-2.34973 -1.7718,-1.77183 -2.007625,-4.73253 -2.007625,-4.73253 l -0.0016,-14.81149 1.001489,-0.22218 c 0.976195,-0.21022 1.898924,-0.23893 2.629815,0.49195 0.682578,0.75459 0.962003,1.42022 0.987019,2.49598 0.0344,1.48111 -0.573125,2.35213 -0.998388,3.0887 -0.476346,0.74019 -1.303748,1.26543 -2.198835,1.67121 l -2e-6,3.66128 c 1.624506,-0.25167 2.29998,-0.5519 3.694351,-1.54306 0.954897,-0.9549 2.142569,-2.00336 2.559019,-3.06389 0.47248,-1.20323 1.0113,-2.02313 1.01131,-3.98995 0,-1.43603 0.0513,-2.2982 -0.91054,-4.13411 -1.309517,-1.88544 -2.398309,-2.39479 -3.957899,-2.75797 -0.396697,-0.0924 -0.658359,-0.12771 -1.230933,-0.12041 z"
       sodipodi:nodetypes="cccccccccccccccsccscccccccccccccccccccccccccccccccccccccccccccccccccscccccccscccccccccccsscccc" /><text
       xml:space="preserve"
       style="font-style:normal;font-variant:normal;font-weight:normal;font-stretch:normal;font-size:22.5778px;font-family:Quicksand;-inkscape-font-specification:Quicksand;text-align:start;writing-mode:lr-tb;direction:ltr;text-anchor:start;fill:#ffffff;stroke-width:0.264583"
       x="70.712936"
       y="206.83911"
       id="text2"><tspan
         sodipodi:role="line"
         id="tspan1"
         style="font-style:normal;font-variant:normal;font-weight:normal;font-stretch:normal;font-size:22.5778px;font-family:Outfit;-inkscape-font-specification:Outfit;fill:#efb7c5;fill-opacity:1;stroke-width:0.264583"
         x="70.712936"
         y="206.83911">Motors</tspan></text></g><g
     id="g1" /></svg>
